{
	"asset":{
		"generator":"Khronos glTF Blender I/O v4.1.22",
		"version":"2.0"
	},
	"scene":0,
	"scenes":[
		{
			"extras":{
				"uuid":"24703f66-0e42-4168-b299-5243fefb505e",
				"assets reported":{}
			},
			"name":"Scene",
			"nodes":[
				0,
				1,
				2,
				3,
				4,
				5,
				6,
				7,
				8,
				9,
				10,
				11,
				12
			]
		}
	],
	"nodes":[
		{
			"extras":{
				"ant_landscape":{},
				"mesh_collider_marker":true,
				"collider_type":"tris"
			},
			"mesh":0,
			"name":"Plane",
			"translation":[
				-1.9290536642074585,
				0,
				0
			]
		},
		{
			"extras":{
				"ant_landscape":{},
				"spawn_point":true,
				"skybox":"levels\\new_level_01\\img\\env\\autumn_park_4k.ktx2"
			},
			"name":"Empty",
			"translation":[
				-2.357198715209961,
				3.5976758003234863,
				-0.12890106439590454
			]
		},
		{
			"extras":{
				"action:input_field":"test_",
				"mesh_collider_marker":true,
				"collider_type":"tris",
				"action:one_animation":2
			},
			"mesh":1,
			"name":"Cube",
			"translation":[
				6.286412239074707,
				1.7513266801834106,
				0
			]
		},
		{
			"extras":{
				"action:test_chamber":2,
				"#test_chamber_routes":[
					10,
					11,
					12
				],
				"#test_chamber_repeats_globally":true,
				"#test_chamber_answer":[
					"a",
					"b",
					"c"
				],
				"#test_chamber_rights":[
					20,
					21,
					22
				],
				"#test_chamber_wrongs":[
					30,
					31,
					32
				],
				"#test_chamber_input_name":"test_",
				"action:stand_button":2,
				"mesh_collider_marker":true,
				"collider_type":"tris",
				"#press_longetivity":1.0,
				"#cooldown":1.0
			},
			"mesh":2,
			"name":"Cube.001",
			"scale":[
				0.5734879970550537,
				0.5734879970550537,
				0.5734879970550537
			],
			"translation":[
				0,
				0.9256919026374817,
				0
			]
		},
		{
			"extras":{
				"action:one_animation":10
			},
			"mesh":3,
			"name":"Cube.002",
			"translation":[
				1.3445301055908203,
				1.7513266801834106,
				3.422417640686035
			]
		},
		{
			"extras":{
				"action:one_animation":11
			},
			"mesh":4,
			"name":"Cube.003",
			"translation":[
				1.3445301055908203,
				1.7513266801834106,
				4.4624176025390625
			]
		},
		{
			"extras":{
				"action:one_animation":12
			},
			"mesh":5,
			"name":"Cube.004",
			"translation":[
				1.3445301055908203,
				1.7513266801834106,
				5.722417831420898
			]
		},
		{
			"extras":{
				"action:one_animation":30
			},
			"mesh":6,
			"name":"Cube.005",
			"translation":[
				1.3445301055908203,
				3.4713265895843506,
				3.422417640686035
			]
		},
		{
			"extras":{
				"action:one_animation":31
			},
			"mesh":7,
			"name":"Cube.006",
			"translation":[
				1.3445301055908203,
				3.4713265895843506,
				4.562417507171631
			]
		},
		{
			"extras":{
				"action:one_animation":32
			},
			"mesh":8,
			"name":"Cube.007",
			"translation":[
				1.3445301055908203,
				3.4713265895843506,
				5.722417831420898
			]
		},
		{
			"extras":{
				"action:one_animation":20
			},
			"mesh":9,
			"name":"Cube.008",
			"translation":[
				1.3445301055908203,
				4.1613264083862305,
				3.422417640686035
			]
		},
		{
			"extras":{
				"action:one_animation":21
			},
			"mesh":10,
			"name":"Cube.009",
			"translation":[
				1.3445301055908203,
				4.1613264083862305,
				4.612417697906494
			]
		},
		{
			"extras":{
				"action:one_animation":22
			},
			"mesh":11,
			"name":"Cube.010",
			"translation":[
				1.3445301055908203,
				4.1613264083862305,
				5.802417755126953
			]
		}
	],
	"animations":[
		{
			"channels":[
				{
					"sampler":0,
					"target":{
						"node":2,
						"path":"translation"
					}
				}
			],
			"name":"CubeAction",
			"samplers":[
				{
					"input":40,
					"interpolation":"LINEAR",
					"output":41
				}
			]
		},
		{
			"channels":[
				{
					"sampler":0,
					"target":{
						"node":4,
						"path":"translation"
					}
				}
			],
			"name":"Cube.002Action",
			"samplers":[
				{
					"input":42,
					"interpolation":"LINEAR",
					"output":43
				}
			]
		},
		{
			"channels":[
				{
					"sampler":0,
					"target":{
						"node":5,
						"path":"translation"
					}
				}
			],
			"name":"Cube.002Action.001",
			"samplers":[
				{
					"input":42,
					"interpolation":"LINEAR",
					"output":44
				}
			]
		},
		{
			"channels":[
				{
					"sampler":0,
					"target":{
						"node":6,
						"path":"translation"
					}
				}
			],
			"name":"Cube.002Action.002",
			"samplers":[
				{
					"input":42,
					"interpolation":"LINEAR",
					"output":45
				}
			]
		},
		{
			"channels":[
				{
					"sampler":0,
					"target":{
						"node":7,
						"path":"translation"
					}
				}
			],
			"name":"Cube.002Action.003",
			"samplers":[
				{
					"input":42,
					"interpolation":"LINEAR",
					"output":46
				}
			]
		},
		{
			"channels":[
				{
					"sampler":0,
					"target":{
						"node":8,
						"path":"translation"
					}
				}
			],
			"name":"Cube.002Action.004",
			"samplers":[
				{
					"input":42,
					"interpolation":"LINEAR",
					"output":47
				}
			]
		},
		{
			"channels":[
				{
					"sampler":0,
					"target":{
						"node":9,
						"path":"translation"
					}
				}
			],
			"name":"Cube.002Action.005",
			"samplers":[
				{
					"input":42,
					"interpolation":"LINEAR",
					"output":48
				}
			]
		},
		{
			"channels":[
				{
					"sampler":0,
					"target":{
						"node":10,
						"path":"translation"
					}
				}
			],
			"name":"Cube.002Action.006",
			"samplers":[
				{
					"input":42,
					"interpolation":"LINEAR",
					"output":49
				}
			]
		},
		{
			"channels":[
				{
					"sampler":0,
					"target":{
						"node":11,
						"path":"translation"
					}
				}
			],
			"name":"Cube.002Action.007",
			"samplers":[
				{
					"input":42,
					"interpolation":"LINEAR",
					"output":50
				}
			]
		},
		{
			"channels":[
				{
					"sampler":0,
					"target":{
						"node":12,
						"path":"translation"
					}
				}
			],
			"name":"Cube.002Action.008",
			"samplers":[
				{
					"input":42,
					"interpolation":"LINEAR",
					"output":51
				}
			]
		}
	],
	"meshes":[
		{
			"name":"Plane",
			"primitives":[
				{
					"attributes":{
						"POSITION":0,
						"NORMAL":1,
						"TEXCOORD_0":2
					},
					"indices":3
				}
			]
		},
		{
			"name":"Cube.001",
			"primitives":[
				{
					"attributes":{
						"POSITION":4,
						"NORMAL":5,
						"TEXCOORD_0":6
					},
					"indices":7
				}
			]
		},
		{
			"name":"Cube",
			"primitives":[
				{
					"attributes":{
						"POSITION":8,
						"NORMAL":9,
						"TEXCOORD_0":10
					},
					"indices":7
				}
			]
		},
		{
			"name":"Cube.002",
			"primitives":[
				{
					"attributes":{
						"POSITION":11,
						"NORMAL":12,
						"TEXCOORD_0":13
					},
					"indices":7
				}
			]
		},
		{
			"name":"Cube.003",
			"primitives":[
				{
					"attributes":{
						"POSITION":14,
						"NORMAL":15,
						"TEXCOORD_0":16
					},
					"indices":7
				}
			]
		},
		{
			"name":"Cube.004",
			"primitives":[
				{
					"attributes":{
						"POSITION":17,
						"NORMAL":18,
						"TEXCOORD_0":19
					},
					"indices":7
				}
			]
		},
		{
			"name":"Cube.005",
			"primitives":[
				{
					"attributes":{
						"POSITION":20,
						"NORMAL":21,
						"TEXCOORD_0":22
					},
					"indices":23
				}
			]
		},
		{
			"name":"Cube.006",
			"primitives":[
				{
					"attributes":{
						"POSITION":24,
						"NORMAL":25,
						"TEXCOORD_0":26
					},
					"indices":23
				}
			]
		},
		{
			"name":"Cube.007",
			"primitives":[
				{
					"attributes":{
						"POSITION":27,
						"NORMAL":28,
						"TEXCOORD_0":29
					},
					"indices":23
				}
			]
		},
		{
			"name":"Cube.008",
			"primitives":[
				{
					"attributes":{
						"POSITION":30,
						"NORMAL":31,
						"TEXCOORD_0":32
					},
					"indices":33
				}
			]
		},
		{
			"name":"Cube.009",
			"primitives":[
				{
					"attributes":{
						"POSITION":34,
						"NORMAL":35,
						"TEXCOORD_0":36
					},
					"indices":33
				}
			]
		},
		{
			"name":"Cube.010",
			"primitives":[
				{
					"attributes":{
						"POSITION":37,
						"NORMAL":38,
						"TEXCOORD_0":39
					},
					"indices":33
				}
			]
		}
	],
	"accessors":[
		{
			"bufferView":0,
			"componentType":5126,
			"count":4,
			"max":[
				3,
				0,
				3
			],
			"min":[
				-3,
				0,
				-3
			],
			"type":"VEC3"
		},
		{
			"bufferView":1,
			"componentType":5126,
			"count":4,
			"type":"VEC3"
		},
		{
			"bufferView":2,
			"componentType":5126,
			"count":4,
			"type":"VEC2"
		},
		{
			"bufferView":3,
			"componentType":5123,
			"count":6,
			"type":"SCALAR"
		},
		{
			"bufferView":4,
			"componentType":5126,
			"count":24,
			"max":[
				0.4326273202896118,
				0.43262726068496704,
				0.4326273202896118
			],
			"min":[
				-0.4326273202896118,
				-0.4326273798942566,
				-0.4326273202896118
			],
			"type":"VEC3"
		},
		{
			"bufferView":5,
			"componentType":5126,
			"count":24,
			"type":"VEC3"
		},
		{
			"bufferView":6,
			"componentType":5126,
			"count":24,
			"type":"VEC2"
		},
		{
			"bufferView":7,
			"componentType":5123,
			"count":36,
			"type":"SCALAR"
		},
		{
			"bufferView":8,
			"componentType":5126,
			"count":24,
			"max":[
				1,
				1,
				1
			],
			"min":[
				-1,
				-1,
				-1
			],
			"type":"VEC3"
		},
		{
			"bufferView":9,
			"componentType":5126,
			"count":24,
			"type":"VEC3"
		},
		{
			"bufferView":10,
			"componentType":5126,
			"count":24,
			"type":"VEC2"
		},
		{
			"bufferView":11,
			"componentType":5126,
			"count":24,
			"max":[
				0.4326273202896118,
				0.43262726068496704,
				0.4326273202896118
			],
			"min":[
				-0.4326273202896118,
				-0.4326273798942566,
				-0.4326273202896118
			],
			"type":"VEC3"
		},
		{
			"bufferView":12,
			"componentType":5126,
			"count":24,
			"type":"VEC3"
		},
		{
			"bufferView":13,
			"componentType":5126,
			"count":24,
			"type":"VEC2"
		},
		{
			"bufferView":14,
			"componentType":5126,
			"count":24,
			"max":[
				0.4326273202896118,
				0.43262726068496704,
				0.4326273202896118
			],
			"min":[
				-0.4326273202896118,
				-0.4326273798942566,
				-0.4326273202896118
			],
			"type":"VEC3"
		},
		{
			"bufferView":15,
			"componentType":5126,
			"count":24,
			"type":"VEC3"
		},
		{
			"bufferView":16,
			"componentType":5126,
			"count":24,
			"type":"VEC2"
		},
		{
			"bufferView":17,
			"componentType":5126,
			"count":24,
			"max":[
				0.4326273202896118,
				0.43262726068496704,
				0.4326273202896118
			],
			"min":[
				-0.4326273202896118,
				-0.4326273798942566,
				-0.4326273202896118
			],
			"type":"VEC3"
		},
		{
			"bufferView":18,
			"componentType":5126,
			"count":24,
			"type":"VEC3"
		},
		{
			"bufferView":19,
			"componentType":5126,
			"count":24,
			"type":"VEC2"
		},
		{
			"bufferView":20,
			"componentType":5126,
			"count":96,
			"max":[
				0.06573303043842316,
				0.22058986127376556,
				0.17756381630897522
			],
			"min":[
				-0.06573303043842316,
				-0.22059036791324615,
				-0.4245714545249939
			],
			"type":"VEC3"
		},
		{
			"bufferView":21,
			"componentType":5126,
			"count":96,
			"type":"VEC3"
		},
		{
			"bufferView":22,
			"componentType":5126,
			"count":96,
			"type":"VEC2"
		},
		{
			"bufferView":23,
			"componentType":5123,
			"count":144,
			"type":"SCALAR"
		},
		{
			"bufferView":24,
			"componentType":5126,
			"count":96,
			"max":[
				0.06573303043842316,
				0.22058986127376556,
				0.17756381630897522
			],
			"min":[
				-0.06573303043842316,
				-0.22059036791324615,
				-0.4245714545249939
			],
			"type":"VEC3"
		},
		{
			"bufferView":25,
			"componentType":5126,
			"count":96,
			"type":"VEC3"
		},
		{
			"bufferView":26,
			"componentType":5126,
			"count":96,
			"type":"VEC2"
		},
		{
			"bufferView":27,
			"componentType":5126,
			"count":96,
			"max":[
				0.06573303043842316,
				0.22058986127376556,
				0.17756381630897522
			],
			"min":[
				-0.06573303043842316,
				-0.22059036791324615,
				-0.4245714545249939
			],
			"type":"VEC3"
		},
		{
			"bufferView":28,
			"componentType":5126,
			"count":96,
			"type":"VEC3"
		},
		{
			"bufferView":29,
			"componentType":5126,
			"count":96,
			"type":"VEC2"
		},
		{
			"bufferView":30,
			"componentType":5126,
			"count":96,
			"max":[
				0.06573303043842316,
				0.34850645065307617,
				0.059830233454704285
			],
			"min":[
				-0.06573306769132614,
				-0.21313154697418213,
				-0.3863011300563812
			],
			"type":"VEC3"
		},
		{
			"bufferView":31,
			"componentType":5126,
			"count":96,
			"type":"VEC3"
		},
		{
			"bufferView":32,
			"componentType":5126,
			"count":96,
			"type":"VEC2"
		},
		{
			"bufferView":33,
			"componentType":5123,
			"count":144,
			"type":"SCALAR"
		},
		{
			"bufferView":34,
			"componentType":5126,
			"count":96,
			"max":[
				0.06573303043842316,
				0.34850645065307617,
				0.059830233454704285
			],
			"min":[
				-0.06573306769132614,
				-0.21313154697418213,
				-0.3863011300563812
			],
			"type":"VEC3"
		},
		{
			"bufferView":35,
			"componentType":5126,
			"count":96,
			"type":"VEC3"
		},
		{
			"bufferView":36,
			"componentType":5126,
			"count":96,
			"type":"VEC2"
		},
		{
			"bufferView":37,
			"componentType":5126,
			"count":96,
			"max":[
				0.06573303043842316,
				0.34850645065307617,
				0.059830233454704285
			],
			"min":[
				-0.06573306769132614,
				-0.21313154697418213,
				-0.3863011300563812
			],
			"type":"VEC3"
		},
		{
			"bufferView":38,
			"componentType":5126,
			"count":96,
			"type":"VEC3"
		},
		{
			"bufferView":39,
			"componentType":5126,
			"count":96,
			"type":"VEC2"
		},
		{
			"bufferView":40,
			"componentType":5126,
			"count":15,
			"max":[
				0.625
			],
			"min":[
				0.041666666666666664
			],
			"type":"SCALAR"
		},
		{
			"bufferView":41,
			"componentType":5126,
			"count":15,
			"type":"VEC3"
		},
		{
			"bufferView":42,
			"componentType":5126,
			"count":22,
			"max":[
				0.875
			],
			"min":[
				0
			],
			"type":"SCALAR"
		},
		{
			"bufferView":43,
			"componentType":5126,
			"count":22,
			"type":"VEC3"
		},
		{
			"bufferView":44,
			"componentType":5126,
			"count":22,
			"type":"VEC3"
		},
		{
			"bufferView":45,
			"componentType":5126,
			"count":22,
			"type":"VEC3"
		},
		{
			"bufferView":46,
			"componentType":5126,
			"count":22,
			"type":"VEC3"
		},
		{
			"bufferView":47,
			"componentType":5126,
			"count":22,
			"type":"VEC3"
		},
		{
			"bufferView":48,
			"componentType":5126,
			"count":22,
			"type":"VEC3"
		},
		{
			"bufferView":49,
			"componentType":5126,
			"count":22,
			"type":"VEC3"
		},
		{
			"bufferView":50,
			"componentType":5126,
			"count":22,
			"type":"VEC3"
		},
		{
			"bufferView":51,
			"componentType":5126,
			"count":22,
			"type":"VEC3"
		}
	],
	"bufferViews":[
		{
			"buffer":0,
			"byteLength":48,
			"byteOffset":0,
			"target":34962
		},
		{
			"buffer":0,
			"byteLength":48,
			"byteOffset":48,
			"target":34962
		},
		{
			"buffer":0,
			"byteLength":32,
			"byteOffset":96,
			"target":34962
		},
		{
			"buffer":0,
			"byteLength":12,
			"byteOffset":128,
			"target":34963
		},
		{
			"buffer":0,
			"byteLength":288,
			"byteOffset":140,
			"target":34962
		},
		{
			"buffer":0,
			"byteLength":288,
			"byteOffset":428,
			"target":34962
		},
		{
			"buffer":0,
			"byteLength":192,
			"byteOffset":716,
			"target":34962
		},
		{
			"buffer":0,
			"byteLength":72,
			"byteOffset":908,
			"target":34963
		},
		{
			"buffer":0,
			"byteLength":288,
			"byteOffset":980,
			"target":34962
		},
		{
			"buffer":0,
			"byteLength":288,
			"byteOffset":1268,
			"target":34962
		},
		{
			"buffer":0,
			"byteLength":192,
			"byteOffset":1556,
			"target":34962
		},
		{
			"buffer":0,
			"byteLength":288,
			"byteOffset":1748,
			"target":34962
		},
		{
			"buffer":0,
			"byteLength":288,
			"byteOffset":2036,
			"target":34962
		},
		{
			"buffer":0,
			"byteLength":192,
			"byteOffset":2324,
			"target":34962
		},
		{
			"buffer":0,
			"byteLength":288,
			"byteOffset":2516,
			"target":34962
		},
		{
			"buffer":0,
			"byteLength":288,
			"byteOffset":2804,
			"target":34962
		},
		{
			"buffer":0,
			"byteLength":192,
			"byteOffset":3092,
			"target":34962
		},
		{
			"buffer":0,
			"byteLength":288,
			"byteOffset":3284,
			"target":34962
		},
		{
			"buffer":0,
			"byteLength":288,
			"byteOffset":3572,
			"target":34962
		},
		{
			"buffer":0,
			"byteLength":192,
			"byteOffset":3860,
			"target":34962
		},
		{
			"buffer":0,
			"byteLength":1152,
			"byteOffset":4052,
			"target":34962
		},
		{
			"buffer":0,
			"byteLength":1152,
			"byteOffset":5204,
			"target":34962
		},
		{
			"buffer":0,
			"byteLength":768,
			"byteOffset":6356,
			"target":34962
		},
		{
			"buffer":0,
			"byteLength":288,
			"byteOffset":7124,
			"target":34963
		},
		{
			"buffer":0,
			"byteLength":1152,
			"byteOffset":7412,
			"target":34962
		},
		{
			"buffer":0,
			"byteLength":1152,
			"byteOffset":8564,
			"target":34962
		},
		{
			"buffer":0,
			"byteLength":768,
			"byteOffset":9716,
			"target":34962
		},
		{
			"buffer":0,
			"byteLength":1152,
			"byteOffset":10484,
			"target":34962
		},
		{
			"buffer":0,
			"byteLength":1152,
			"byteOffset":11636,
			"target":34962
		},
		{
			"buffer":0,
			"byteLength":768,
			"byteOffset":12788,
			"target":34962
		},
		{
			"buffer":0,
			"byteLength":1152,
			"byteOffset":13556,
			"target":34962
		},
		{
			"buffer":0,
			"byteLength":1152,
			"byteOffset":14708,
			"target":34962
		},
		{
			"buffer":0,
			"byteLength":768,
			"byteOffset":15860,
			"target":34962
		},
		{
			"buffer":0,
			"byteLength":288,
			"byteOffset":16628,
			"target":34963
		},
		{
			"buffer":0,
			"byteLength":1152,
			"byteOffset":16916,
			"target":34962
		},
		{
			"buffer":0,
			"byteLength":1152,
			"byteOffset":18068,
			"target":34962
		},
		{
			"buffer":0,
			"byteLength":768,
			"byteOffset":19220,
			"target":34962
		},
		{
			"buffer":0,
			"byteLength":1152,
			"byteOffset":19988,
			"target":34962
		},
		{
			"buffer":0,
			"byteLength":1152,
			"byteOffset":21140,
			"target":34962
		},
		{
			"buffer":0,
			"byteLength":768,
			"byteOffset":22292,
			"target":34962
		},
		{
			"buffer":0,
			"byteLength":60,
			"byteOffset":23060
		},
		{
			"buffer":0,
			"byteLength":180,
			"byteOffset":23120
		},
		{
			"buffer":0,
			"byteLength":88,
			"byteOffset":23300
		},
		{
			"buffer":0,
			"byteLength":264,
			"byteOffset":23388
		},
		{
			"buffer":0,
			"byteLength":264,
			"byteOffset":23652
		},
		{
			"buffer":0,
			"byteLength":264,
			"byteOffset":23916
		},
		{
			"buffer":0,
			"byteLength":264,
			"byteOffset":24180
		},
		{
			"buffer":0,
			"byteLength":264,
			"byteOffset":24444
		},
		{
			"buffer":0,
			"byteLength":264,
			"byteOffset":24708
		},
		{
			"buffer":0,
			"byteLength":264,
			"byteOffset":24972
		},
		{
			"buffer":0,
			"byteLength":264,
			"byteOffset":25236
		},
		{
			"buffer":0,
			"byteLength":264,
			"byteOffset":25500
		}
	],
	"buffers":[
		{
			"byteLength":25764,
			"uri":"main.bin"
		}
	]
}
